<mxfile host="app.diagrams.net" modified="2024-02-28T19:33:31.073Z" agent="Mozilla/5.0 (Windows NT 10.0; Win64; x64) AppleWebKit/537.36 (KHTML, like Gecko) Chrome/122.0.0.0 Safari/537.36" version="23.1.8" etag="T76kPFZP0vzz-Z85IKug" type="github">
  <diagram name="PÃ¡gina-1" id="bc1kx0qXfSUvlRc7TibA">
    <mxGraphModel>
      <root>
        <mxCell id="0" />
        <mxCell id="1" parent="0" />
      </root>
    </mxGraphModel>
  </diagram>
</mxfile>
